<svg width="32" height="32" viewBox="0 0 32 32" fill="none" xmlns="http://www.w3.org/2000/svg">
<g clip-path="url(#clip0_35822_252)">
<path d="M22.2054 21.5212L17.1636 16L22.2054 10.4794C22.3637 10.3056 22.4445 10.0739 22.4276 9.83901C22.4107 9.60388 22.2984 9.38591 22.1163 9.23643L15.9874 4.19591C15.7305 3.98455 15.3753 3.94016 15.0746 4.08252C14.7739 4.22427 14.5823 4.52671 14.5823 4.85924V13.1736L11.0639 9.32043C10.7443 8.97018 10.2004 8.94552 9.85017 9.26544C9.49992 9.58537 9.47526 10.1286 9.79518 10.4792L14.5823 15.7217V16.2784L9.79523 21.5212C9.47503 21.8711 9.49968 22.4147 9.85022 22.7349C10.2007 23.0551 10.7441 23.0304 11.064 22.6796L14.5821 18.827V27.1408C14.5821 27.473 14.774 27.7757 15.0744 27.9178C15.1913 27.9728 15.3167 28 15.4413 28C15.6369 28 15.8305 27.9336 15.9874 27.8047L22.1163 22.7641C22.2984 22.6143 22.4107 22.3964 22.4276 22.1615C22.4445 21.9267 22.3643 21.695 22.2054 21.5212ZM16.3007 6.67837L20.326 9.98854L16.3007 14.3968V6.67837ZM16.3007 25.3216V17.6035L20.326 22.0115L16.3007 25.3216Z" fill="black"/>
</g>
<defs>
<clipPath id="clip0_35822_252">
<rect width="24" height="24" fill="white" transform="translate(4 4)"/>
</clipPath>
</defs>
</svg>
