<svg xmlns="http://www.w3.org/2000/svg">
<symbol id="battery-why" viewBox="0 0 68 68">
    <path d="M46.536 8H40V4H28V8H21.464C19.554 8 18 9.554 18 11.464V60.536C18 62.446 19.554 64 21.464 64H46.536C48.446 64 50 62.446 50 60.536V11.464C50 9.554 48.446 8 46.536 8ZM20 23H48V35H20V23ZM20 37H48V49H20V37ZM30 6H38V8H30V6ZM21.464 10H28H40H46.536C47.344 10 48 10.656 48 11.464V21H20V11.464C20 10.656 20.656 10 21.464 10ZM46.536 62H21.464C20.656 62 20 61.344 20 60.536V51H48V60.536C48 61.344 47.344 62 46.536 62Z" fill="black"/>
</symbol>

<symbol id="battery">
    <g clip-path="url(#clip0_34105_204)">
        <path d="M27.031 4.73074H13.969C12.527 4.73074 11.3539 5.90383 11.3539 7.34588V36.8079C11.3539 38.2499 12.527 39.423 13.969 39.423H27.031C28.4731 39.423 29.6462 38.2499 29.6462 36.8079V7.34597C29.6462 5.90383 28.4731 4.73074 27.031 4.73074ZM28.3846 36.8079C28.3846 37.5541 27.7772 38.1616 27.031 38.1616H13.969C13.2228 38.1616 12.6154 37.5541 12.6154 36.8079V7.34597C12.6154 6.59977 13.2228 5.99234 13.969 5.99234H27.031C27.7772 5.99234 28.3847 6.59977 28.3847 7.34597V36.8079H28.3846Z" fill="black"/>
        <path d="M23.9693 1.57693H17.0308C16.6825 1.57693 16.4 1.8594 16.4 2.20773V5.36155C16.4 5.70989 16.6825 5.99235 17.0308 5.99235H23.9693C24.3176 5.99235 24.6001 5.70989 24.6001 5.36155V2.20773C24.6 1.8594 24.3176 1.57693 23.9693 1.57693ZM23.3385 4.73075H17.6615V2.83844H23.3385V4.73075Z" fill="black"/>
        <path d="M25.1319 18.8996C25.0161 18.7175 24.8155 18.6075 24.6 18.6075H20.8154V12.9306C20.8154 12.6349 20.6099 12.379 20.3213 12.315C20.0301 12.2512 19.738 12.396 19.613 12.6639L15.1976 22.1255C15.1065 22.3207 15.1215 22.5494 15.2373 22.731C15.3531 22.9132 15.5537 23.0231 15.7692 23.0231H19.5538V28.7C19.5538 28.9957 19.7593 29.2516 20.0479 29.3157C20.0938 29.3259 20.1396 29.3308 20.1849 29.3308C20.4257 29.3308 20.6509 29.1922 20.7562 28.9667L25.1716 19.5052C25.2627 19.3099 25.2477 19.0812 25.1319 18.8996ZM19.5538 21.7615H16.7597L19.5538 15.7738V21.7615ZM20.8154 25.857V19.8692H23.6095L20.8154 25.857Z" fill="black"/>
    </g>
</symbol> 

<symbol id="logo" viewBox="0 0 40 40">
    <g clip-path="url(#clip0_24_739)">
        <path d="M20 26C23.3 26 26 23.3 26 20C26 16.7 23.3 14 20 14C16.7 14 14 16.7 14 20C14 23.3 16.7 26 20 26ZM20 0C18 0 15.9 0.3 14 0.9V12C18.4 8.7 24.7 9.6 28 14C31.3 18.4 30.4 24.7 26 28C21.6 31.3 15.3 30.4 12 26C10.7 24.3 9.99999 22.2 9.99999 20V2.7C0.399989 8.2 -2.80001 20.4 2.69999 30C8.19999 39.6 20.4 42.8 30 37.3C39.6 31.8 42.8 19.6 37.3 10C33.8 3.8 27.2 0 20 0Z" fill="#E01F3D"/>
    </g>
</symbol> 

<symbol id="dynamic" viewBox="0 0 68 68">
<g clip-path="url(#clip0_34397_355)">
<path d="M36.404 11.413C35.428 10.861 34.273 10.879 33.314 11.457C33.268 11.484 33.224 11.516 33.184 11.55L19.634 23.013H9C8.447 23.013 8 23.46 8 24.013V43.013C8 43.279 8.105 43.533 8.293 43.72C8.481 43.907 8.734 44.013 9 44.013L19.61 44.008L33.153 56.448C33.203 56.494 33.257 56.534 33.314 56.568C33.806 56.865 34.351 57.014 34.896 57.014C35.413 57.013 35.929 56.88 36.404 56.612C37.403 56.048 38 55.018 38 53.857V14.169C38 13.008 37.403 11.978 36.404 11.413ZM36 53.857C36 54.288 35.783 54.667 35.421 54.872C35.266 54.959 34.873 55.127 34.421 54.898L21 42.569V38.013C21 37.46 20.553 37.013 20 37.013C19.447 37.013 19 37.46 19 38.013V42.009L10 42.013V25.013H19V29.013C19 29.566 19.447 30.013 20 30.013C20.553 30.013 21 29.566 21 29.013V24.477L34.405 13.137C34.866 12.895 35.265 13.067 35.421 13.155C35.783 13.36 36 13.739 36 14.169V53.857Z" fill="black"/>
<path d="M46.797 15.066C46.274 14.889 45.706 15.169 45.528 15.692C45.351 16.214 45.631 16.783 46.154 16.961C53.255 19.372 58.026 26.024 58.026 33.514C58.026 40.997 53.264 47.65 46.177 50.068C45.655 50.246 45.375 50.814 45.554 51.338C45.696 51.753 46.084 52.015 46.5 52.015C46.607 52.015 46.716 51.998 46.823 51.961C54.719 49.268 60.025 41.855 60.025 33.515C60.026 25.166 54.71 17.753 46.797 15.066Z" fill="black"/>
<path d="M51.026 33.513C51.026 27.541 47.017 22.211 41.277 20.551C40.744 20.4 40.193 20.703 40.039 21.235C39.886 21.765 40.191 22.32 40.723 22.473C45.612 23.886 49.027 28.426 49.027 33.513C49.027 38.6 45.612 43.14 40.723 44.553C40.192 44.706 39.886 45.261 40.039 45.791C40.166 46.229 40.565 46.514 41 46.514C41.092 46.514 41.185 46.501 41.277 46.475C47.018 44.815 51.026 39.485 51.026 33.513Z" fill="black"/>
</g>
</symbol> 

<symbol id="ear">
<g clip-path="url(#clip0_34105_192)">
<g clip-path="url(#clip1_34105_192)">
<path d="M12.5923 0.788452C6.0838 0.788452 0.788452 6.52513 0.788452 13.6081C0.813499 15.2504 1.26379 16.8582 2.0954 18.2746C2.48837 18.9449 2.82485 19.6468 3.10135 20.373C3.28474 20.9068 3.10872 21.498 2.6633 21.8446C1.88835 22.4641 1.43928 23.404 1.44422 24.3962C1.44111 25.4864 1.9801 26.5069 2.88233 27.1189C3.20669 27.3393 3.40398 27.7033 3.41153 28.0954V33.577C3.41153 37.1929 6.05888 40.1347 9.31347 40.1347C12.5681 40.1347 15.2154 37.1929 15.2154 33.577C15.2054 30.8762 16.3799 28.3068 18.4287 26.5471C22.2694 23.3425 24.4615 18.5777 24.3962 13.576C24.3962 6.52513 19.1008 0.788452 12.5923 0.788452ZM17.5762 25.551C15.2357 27.5594 13.8935 30.4929 13.9039 33.577C13.9039 36.4696 11.8441 38.8231 9.31347 38.8231C6.78285 38.8231 4.72308 36.4696 4.72308 33.577V28.0954C4.71245 27.2832 4.31391 26.5251 3.65089 26.0559C3.09063 25.69 2.75372 25.0654 2.75576 24.3962C2.75126 23.793 3.02755 23.222 3.50334 22.8512C4.37644 22.1517 4.70981 20.9754 4.33355 19.9219C4.03153 19.1275 3.66367 18.3598 3.23382 17.6267C2.51115 16.3975 2.12043 15.0017 2.09999 13.576C2.09999 7.24845 6.80711 2.09999 12.5923 2.09999C18.3775 2.09999 23.0847 7.24845 23.0847 13.576C23.1447 18.1933 21.1213 22.592 17.5762 25.551V25.551Z" fill="black"/>
<path d="M12.5923 4.06729C8.9377 4.06729 5.82148 6.6589 4.61158 10.2814C4.60306 10.303 4.59715 10.324 4.5906 10.3469C4.24485 11.3989 4.06778 12.4989 4.06598 13.6061C4.06598 14.3931 4.06598 16.7997 5.56966 18.3034C5.82697 18.5519 6.23598 18.5484 6.48893 18.2954C6.74189 18.0425 6.74544 17.6335 6.49692 17.3762C5.95817 16.7773 5.61221 16.03 5.50408 15.2318C5.60966 15.2252 5.71393 15.2167 5.82344 15.2167C8.83343 15.2154 11.2808 17.9696 11.2808 21.3534C11.2808 21.6675 11.2657 21.9626 11.2414 22.2538C10.9149 22.6024 10.5676 22.9309 10.2014 23.2374C8.29139 24.8016 7.2328 27.1762 7.34614 29.6423C7.34614 30.0045 7.63974 30.2981 8.00191 30.2981C8.36409 30.2981 8.65769 30.0045 8.65769 29.6423C8.54487 27.563 9.43359 25.5552 11.0486 24.2408C13.3623 22.465 14.6711 19.6774 14.5596 16.763C14.5596 12.6579 11.4709 9.31345 7.67403 9.31345C7.23785 9.3146 6.80296 9.36075 6.37626 9.45117C7.51611 7.0315 9.91876 5.45745 12.5923 5.37883C16.5696 5.37883 19.8058 9.06885 19.8058 13.6048C19.8573 17.1782 18.3076 20.5872 15.5813 22.8977C15.4908 22.9758 15.3905 23.0597 15.2816 23.1509C13.9766 24.2355 11.2624 26.4953 10.6289 32.1933C10.5906 32.5523 10.8498 32.8748 11.2086 32.9146C11.2325 32.9181 11.2566 32.9203 11.2808 32.9212C11.6148 32.9209 11.8952 32.6696 11.9319 32.3376C12.5071 27.1635 14.8567 25.2087 16.1197 24.1588C16.2358 24.0617 16.3427 23.9725 16.4384 23.8899C19.4567 21.3331 21.1731 17.5601 21.1173 13.6048C21.1173 8.34554 17.2929 4.06729 12.5923 4.06729V4.06729ZM7.67403 10.625C10.7476 10.625 13.2481 13.3792 13.2481 16.763C13.2778 18.0038 13.0314 19.2358 12.5267 20.3697C12.0867 16.7237 9.25247 13.9038 5.82476 13.9038C5.67327 13.9038 5.52769 13.915 5.38145 13.9255C5.38145 13.7996 5.38145 13.6901 5.38145 13.6048C5.38169 12.7278 5.50712 11.8554 5.75393 11.0139C6.36201 10.7587 7.0146 10.6266 7.67403 10.625V10.625Z" fill="black"/>
<path d="M33.577 15.8712C33.6273 13.8043 34.5038 11.8439 36.0105 10.4283C36.1936 10.2657 36.2708 10.0148 36.2109 9.77745C36.151 9.54012 35.9639 9.35591 35.7257 9.29971C35.4874 9.2435 35.2377 9.32466 35.078 9.51019C33.3267 11.1684 32.3135 13.4598 32.2654 15.8712C32.3135 18.2825 33.3267 20.5739 35.078 22.2321C35.2377 22.4177 35.4874 22.4988 35.7257 22.4426C35.9639 22.3864 36.151 22.2022 36.2109 21.9649C36.2708 21.7275 36.1936 21.4766 36.0105 21.314C34.5038 19.8984 33.6273 17.938 33.577 15.8712V15.8712Z" fill="black"/>
<path d="M37.9477 12.1025C37.8178 11.9868 37.6472 11.9275 37.4736 11.9375C37.2999 11.9476 37.1374 12.0263 37.0217 12.1562C35.0519 14.2412 35.0519 17.5012 37.0217 19.5861C37.1775 19.7611 37.4149 19.8397 37.6443 19.7923C37.8738 19.7449 38.0605 19.5786 38.1342 19.3562C38.2078 19.1338 38.1572 18.8889 38.0014 18.7139C36.474 17.1265 36.474 14.6158 38.0014 13.0284C38.1171 12.8985 38.1764 12.7279 38.1664 12.5543C38.1563 12.3806 38.0776 12.2181 37.9477 12.1025V12.1025Z" fill="black"/>
<path d="M39.9661 14.1209C39.7238 13.8519 39.3093 13.8302 39.0402 14.0724C38.489 14.5066 38.1674 15.1695 38.1674 15.8712C38.1674 16.5728 38.489 17.2357 39.0402 17.67C39.2134 17.8322 39.4608 17.8882 39.687 17.8164C39.9133 17.7445 40.083 17.556 40.1308 17.3235C40.1786 17.091 40.0971 16.8508 39.9176 16.6955C39.6633 16.4935 39.5045 16.1949 39.4789 15.8712C39.5045 15.5475 39.6633 15.2489 39.9176 15.0469C40.1866 14.8046 40.2083 14.3901 39.9661 14.1209V14.1209Z" fill="black"/>
<path d="M30.2981 15.8712C30.2981 12.9858 31.5907 10.1974 34.036 7.81567C34.2038 7.65167 34.2713 7.41064 34.2131 7.18337C34.155 6.95609 33.98 6.77711 33.7541 6.71383C33.5282 6.65056 33.2857 6.71261 33.118 6.87661C30.4162 9.51018 28.9866 12.6205 28.9866 15.8712C28.9866 19.1218 30.4162 22.2321 33.118 24.8657C33.3773 25.1192 33.793 25.1145 34.0465 24.8552C34.3 24.5959 34.2953 24.1802 34.036 23.9267C31.5907 21.5449 30.2981 18.7566 30.2981 15.8712V15.8712Z" fill="black"/>
<path d="M27.0193 15.8712C27.0193 12.2684 28.542 8.79802 31.4241 5.83787C31.5881 5.66989 31.65 5.42718 31.5866 5.20116C31.5231 4.97514 31.3439 4.80016 31.1164 4.74212C30.8889 4.68409 30.6477 4.75181 30.4837 4.9198C27.3596 8.13307 25.7077 11.9201 25.7077 15.8712C25.7077 19.8222 27.3596 23.6092 30.4837 26.8225C30.7373 27.0822 31.1533 27.0872 31.413 26.8337C31.6727 26.5801 31.6776 26.1641 31.4241 25.9044C28.542 22.9443 27.0193 19.474 27.0193 15.8712V15.8712Z" fill="black"/>
</g>
</g>
</symbol> 

<symbol id="phone" viewBox="0 0 14 15">
<g clip-path="url(#clip0_1_51)">
<path d="M13.7455 13.0923C13.4909 13.5935 12.9818 13.8441 12.4727 14.0947C11.8364 14.4706 11.3273 14.5959 10.6909 14.5959C9.8 14.5959 8.90909 14.22 8.14545 13.9694C7.50909 13.7188 7 13.4682 6.36364 13.2176C4.58182 12.09 2.54545 10.0853 1.52727 8.45643C1.14545 7.82996 0.890909 7.32878 0.636364 6.70231C0.381818 5.82525 0 5.07349 0 4.07113C0 3.44466 0.127273 2.81819 0.509091 2.19172C0.763636 1.69054 1.01818 1.18936 1.52727 0.938771C1.90909 0.938771 2.54545 0.813477 2.92727 0.813477C3.05455 0.813477 3.05455 0.813477 3.18182 0.813477C3.43636 0.938771 3.56364 1.31465 3.69091 1.56524C3.94545 2.19172 4.32727 2.69289 4.58182 3.31936C4.83636 3.56995 5.09091 3.82054 5.09091 4.07113C5.09091 4.6976 3.30909 5.57466 3.30909 6.07584C3.30909 6.32643 3.56364 6.70231 3.69091 6.9529C4.70909 8.70702 5.98182 9.95997 7.76364 10.9623C8.01818 11.0876 8.4 11.3382 8.65455 11.3382C9.16364 11.3382 10.0545 9.58408 10.6909 9.58408C10.9455 9.58408 11.2 9.83467 11.4545 10.0853C11.9636 10.4611 12.6 10.7117 13.1091 11.0876C13.3636 11.2129 13.7455 11.3382 13.8727 11.5888C13.8727 11.7141 13.8727 11.7141 13.8727 11.8394C14 12.09 13.8727 12.7164 13.7455 13.0923Z" fill="#292929"/>
</g>
</symbol> 

<symbol id="plug">
<g clip-path="url(#clip0_34105_216)">
<path d="M30.5923 9.77691H28.7V3.46924C28.7 2.39691 27.88 1.57693 26.8077 1.57693C25.7353 1.57693 24.9154 2.39691 24.9154 3.46924V9.77691H16.0846V3.46924C16.0846 2.39691 15.2647 1.57693 14.1923 1.57693C13.12 1.57693 12.3 2.39691 12.3 3.46924V9.77691H10.4077C10.0293 9.77691 9.77697 10.0292 9.77697 10.4077V15.2015C9.77697 18.3553 10.9754 21.383 13.1201 23.7169C15.0124 25.8615 16.0847 28.6369 16.0847 31.4753V33.1153C16.0847 34.8815 17.4724 36.2692 19.2386 36.2692H19.8693V38.7923C19.8693 39.1707 20.1216 39.423 20.5001 39.423C20.8785 39.423 21.1308 39.1707 21.1308 38.7923V36.2692H21.7616C23.5277 36.2692 24.9154 34.8815 24.9154 33.1153V31.5384C24.9154 28.6369 25.9246 25.9246 27.8801 23.78C30.0247 21.4462 31.2232 18.3553 31.2232 15.2016V10.4077C31.2231 10.0293 30.9707 9.77691 30.5923 9.77691ZM26.1769 3.46924C26.1769 3.09078 26.4292 2.8385 26.8077 2.8385C27.1861 2.8385 27.4384 3.09078 27.4384 3.46924V9.77691H26.1769V3.46924ZM13.5615 3.46924C13.5615 3.15383 13.8138 2.8385 14.1923 2.8385C14.5707 2.8385 14.823 3.09078 14.823 3.46924V9.77691H13.5614V3.46924H13.5615ZM29.9615 15.1385C29.9615 18.04 28.9523 20.7524 26.9969 22.897C24.8523 25.2308 23.6539 28.3215 23.6539 31.4754V33.1154C23.6539 34.1878 22.8339 35.0077 21.7616 35.0077H19.2385C18.1662 35.0077 17.3462 34.1878 17.3462 33.1154V31.5385C17.3462 28.3847 16.1478 25.2939 14.0031 22.9601C12.1108 20.8154 11.0385 18.04 11.0385 15.2016V11.0385H12.9308H15.4538H25.5461H28.0692H29.9615V15.1385Z" fill="black"/>
<path d="M23.0231 17.977H19.4907L22.8338 14.6339C23.0861 14.3816 23.0861 14.0031 22.8338 13.7508C22.5815 13.4984 22.2031 13.4985 21.9507 13.7508L17.5354 18.1661C17.3461 18.3554 17.2831 18.6076 17.4092 18.86C17.4722 19.1123 17.7246 19.2385 17.9769 19.2385H21.5092L18.1661 22.5816C17.9138 22.8338 17.9138 23.2123 18.1661 23.4647C18.2923 23.5908 18.4184 23.6539 18.6076 23.6539C18.7968 23.6539 18.923 23.5908 19.0491 23.4647L23.4645 19.0493C23.6537 18.8601 23.7168 18.6078 23.5907 18.3554C23.5277 18.1031 23.2754 17.977 23.0231 17.977Z" fill="black"/>
</g>

<symbol id="time" viewBox="0 0 68 68">
<path d="M35.634 41.989C36.675 41.908 37.624 41.377 38.24 40.53L47.603 27.586C47.89 27.189 47.847 26.641 47.499 26.293C47.151 25.946 46.603 25.903 46.206 26.189L33.26 35.555C32.416 36.169 31.885 37.118 31.804 38.159C31.723 39.2 32.1 40.219 32.837 40.956C33.508 41.628 34.413 42 35.354 42C35.447 42 35.54 41.996 35.634 41.989ZM33.798 38.315C33.833 37.858 34.067 37.441 34.435 37.173L42.332 31.46L36.621 39.355C36.351 39.726 35.934 39.959 35.477 39.995C35.022 40.025 34.575 39.867 34.25 39.542C33.928 39.219 33.762 38.771 33.798 38.315Z" fill="black"/>
<path d="M58.034 23.564C58.024 23.543 58.024 23.521 58.013 23.5C58.001 23.48 57.982 23.469 57.969 23.45C56.958 21.716 55.762 20.103 54.404 18.641L56.552 16.494L57.966 17.908L62.208 13.665L57.966 9.423L53.723 13.665L55.138 15.08L52.99 17.227C51.528 15.869 49.916 14.672 48.181 13.661C48.162 13.648 48.151 13.629 48.131 13.617C48.11 13.605 48.088 13.606 48.067 13.595C44.974 11.813 41.499 10.626 37.794 10.191V9H39.294C40.673 9 41.794 7.879 41.794 6.5C41.794 5.121 40.672 4 39.293 4H30.293C28.914 4 27.793 5.121 27.793 6.5C27.793 7.879 28.914 9 30.293 9H31.793V10.156C30.713 10.271 29.635 10.447 28.569 10.691C28.031 10.814 27.694 11.351 27.818 11.889C27.941 12.427 28.478 12.765 29.016 12.64C29.936 12.429 30.865 12.27 31.796 12.163L32.869 12.08C33.197 12.055 33.499 12.037 33.793 12.023V14C33.793 14.553 34.24 15 34.793 15C35.346 15 35.793 14.553 35.793 14V12.03C39.554 12.203 43.098 13.213 46.249 14.875L45.263 16.582C44.987 17.061 45.151 17.672 45.629 17.948C45.786 18.039 45.958 18.082 46.128 18.082C46.474 18.082 46.81 17.903 46.995 17.582L47.978 15.879C51.107 17.864 53.765 20.522 55.75 23.651L54.047 24.634C53.57 24.91 53.406 25.521 53.683 26C53.869 26.321 54.204 26.5 54.55 26.5C54.72 26.5 54.892 26.457 55.049 26.366L56.756 25.38C58.441 28.576 59.454 32.178 59.605 35.999H57.63C57.077 35.999 56.63 36.446 56.63 36.999C56.63 37.552 57.077 37.999 57.63 37.999H59.605C59.454 41.82 58.441 45.422 56.756 48.618L55.049 47.632C54.571 47.356 53.959 47.518 53.683 47.998C53.407 48.477 53.571 49.088 54.049 49.364L55.752 50.347C53.767 53.476 51.109 56.134 47.98 58.119L46.997 56.416C46.72 55.936 46.107 55.773 45.631 56.05C45.152 56.326 44.988 56.938 45.265 57.416L46.251 59.123C43.1 60.785 39.556 61.795 35.795 61.968V60C35.795 59.447 35.348 59 34.795 59C34.242 59 33.795 59.447 33.795 60V61.976C32.198 61.921 30.596 61.721 29.019 61.359C28.481 61.23 27.944 61.572 27.821 62.11C27.697 62.648 28.034 63.185 28.572 63.308C30.568 63.768 32.607 64 34.63 64C34.679 64 34.726 63.997 34.775 63.996C34.782 63.996 34.787 64 34.793 64C34.801 64 34.808 63.995 34.816 63.995C39.623 63.962 44.133 62.664 48.035 60.422C48.066 60.408 48.099 60.401 48.129 60.383C48.149 60.371 48.16 60.352 48.179 60.339C52.218 57.985 55.593 54.614 57.952 50.578C57.971 50.551 57.995 50.53 58.012 50.5C58.024 50.479 58.023 50.457 58.033 50.436C60.317 46.476 61.63 41.89 61.63 37C61.63 32.11 60.317 27.524 58.034 23.564ZM57.965 12.251L59.379 13.665L57.965 15.08L56.55 13.665L57.965 12.251ZM33.793 10.021V7H30.293C30.018 7 29.793 6.775 29.793 6.5C29.793 6.225 30.018 6 30.293 6H39.293C39.568 6 39.793 6.225 39.793 6.5C39.793 6.775 39.568 7 39.293 7H35.793V10.021C35.445 10.007 35.113 10 34.793 10C34.765 10 34.733 10.002 34.705 10.002C34.68 10.002 34.655 10 34.63 10C34.466 10 34.302 10.011 34.138 10.014C34.022 10.017 33.913 10.016 33.793 10.021Z" fill="black"/>
<path d="M25.793 18H20.793C20.24 18 19.793 18.447 19.793 19C19.793 19.553 20.24 20 20.793 20H25.793C26.346 20 26.793 19.553 26.793 19C26.793 18.447 26.346 18 25.793 18Z" fill="black"/>
<path d="M25.793 25H15.793C15.24 25 14.793 25.447 14.793 26C14.793 26.553 15.24 27 15.793 27H25.793C26.346 27 26.793 26.553 26.793 26C26.793 25.447 26.346 25 25.793 25Z" fill="black"/>
<path d="M25.793 32H10.793C10.24 32 9.793 32.447 9.793 33C9.793 33.553 10.24 34 10.793 34H25.793C26.346 34 26.793 33.553 26.793 33C26.793 32.447 26.346 32 25.793 32Z" fill="black"/>
<path d="M25.793 39H6.793C6.24 39 5.793 39.447 5.793 40C5.793 40.553 6.24 41 6.793 41H25.793C26.346 41 26.793 40.553 26.793 40C26.793 39.447 26.346 39 25.793 39Z" fill="black"/>
<path d="M25.793 46H12.793C12.24 46 11.793 46.447 11.793 47C11.793 47.553 12.24 48 12.793 48H25.793C26.346 48 26.793 47.553 26.793 47C26.793 46.447 26.346 46 25.793 46Z" fill="black"/>
<path d="M25.793 53H18.793C18.24 53 17.793 53.447 17.793 54C17.793 54.553 18.24 55 18.793 55H25.793C26.346 55 26.793 54.553 26.793 54C26.793 53.447 26.346 53 25.793 53Z" fill="black"/>
</symbol> 

<symbol id="gear" viewBox="0 0 91 91">
<g clip-path="url(#clip0_1_51)">
<g clip-path="url(#clip0_24_1430)">
<path d="M46 35.1111C39.9955 35.1111 35.1111 39.9955 35.1111 46C35.1111 52.0044 39.9955 56.8889 46 56.8889C52.0044 56.8889 56.8889 52.0044 56.8889 46C56.8889 39.9955 52.0044 35.1111 46 35.1111ZM46 55.3333C40.8534 55.3333 36.6666 51.1465 36.6666 46C36.6666 40.8534 40.8534 36.6666 46 36.6666C51.1465 36.6666 55.3333 40.8534 55.3333 46C55.3333 51.1465 51.1465 55.3333 46 55.3333Z" fill="white"/>
<path d="M64.8378 41.3333H63.2682C62.8677 39.8462 62.2789 38.4229 61.5104 37.089L62.6196 35.9799C63.0279 35.5716 63.2527 35.0279 63.2527 34.4508C63.2527 33.8729 63.0279 33.33 62.6196 32.9209L59.0783 29.3797C58.2617 28.5638 56.8376 28.5622 56.0193 29.3797L54.9102 30.4888C53.5756 29.7211 52.153 29.1323 50.6667 28.7318V27.1622C50.6667 25.9699 49.6968 25 48.5044 25H43.4956C42.3032 25 41.3333 25.9699 41.3333 27.1622V28.7318C39.847 29.1323 38.4244 29.7211 37.089 30.4896L35.9799 29.3804C35.1624 28.5622 33.7376 28.5638 32.9209 29.3804L29.3797 32.9217C28.9713 33.33 28.7466 33.8737 28.7466 34.4516C28.7466 35.0287 28.9713 35.5716 29.3797 35.9807L30.4888 37.0898C29.7211 38.4229 29.1316 39.8462 28.7318 41.3333H27.1622C25.9699 41.3333 25 42.3032 25 43.4956V48.5037C25 49.6968 25.9699 50.6667 27.1622 50.6667H28.7318C29.1323 52.153 29.7211 53.5756 30.4896 54.911L29.3804 56.0201C28.9721 56.4284 28.7473 56.9721 28.7473 57.5492C28.7473 58.1271 28.9721 58.67 29.3804 59.0791L32.9217 62.6203C33.7383 63.4378 35.1632 63.4386 35.9807 62.6203L37.0898 61.5112C38.4252 62.2789 39.8478 62.8684 41.3341 63.269V64.8386C41.3341 66.0309 42.304 67.0008 43.4963 67.0008H48.5044C49.6968 67.0008 50.6667 66.0309 50.6667 64.8386V63.269C52.153 62.8684 53.5756 62.2797 54.911 61.5112L56.0201 62.6203C56.8383 63.4386 58.2617 63.437 59.0791 62.6203L62.6203 59.0791C63.0287 58.6708 63.2534 58.1271 63.2534 57.5492C63.2534 56.9721 63.0287 56.4292 62.6203 56.0201L61.5112 54.911C62.2789 53.5756 62.8684 52.153 63.269 50.6667H64.8386C66.0309 50.6667 67.0008 49.6968 67.0008 48.5044V43.4956C67 42.3032 66.0301 41.3333 64.8378 41.3333ZM65.4444 48.5044C65.4444 48.8389 65.1722 49.1111 64.8378 49.1111H62.044L61.904 49.7123C61.4988 51.4522 60.8159 53.1034 59.8717 54.6209L59.545 55.1451L61.5198 57.1199C61.757 57.3571 61.757 57.7421 61.5198 57.9786L57.9786 61.5198C57.7421 61.7562 57.3571 61.7578 57.1199 61.5198L55.1451 59.545L54.6209 59.8717C53.1042 60.8159 51.453 61.4996 49.7123 61.904L49.1111 62.044V64.8378C49.1111 65.1722 48.8389 65.4444 48.5044 65.4444H43.4956C43.1611 65.4444 42.8889 65.1722 42.8889 64.8378V62.044L42.2877 61.904C40.5478 61.4988 38.8966 60.8159 37.3791 59.8717L36.8549 59.545L34.8801 61.5198C34.6421 61.7578 34.2571 61.7562 34.0214 61.5198L30.4802 57.9786C30.243 57.7413 30.243 57.3563 30.4802 57.1199L32.455 55.1451L32.1283 54.6209C31.1841 53.1042 30.5004 51.453 30.096 49.7123L29.956 49.1111H27.1622C26.8278 49.1111 26.5556 48.8389 26.5556 48.5044V43.4956C26.5556 43.1611 26.8278 42.8889 27.1622 42.8889H29.956L30.096 42.2877C30.5012 40.547 31.1841 38.8958 32.1283 37.3791L32.455 36.8549L30.4802 34.8801C30.243 34.6429 30.243 34.2579 30.4802 34.0214L34.0214 30.4802C34.2579 30.2438 34.6429 30.2422 34.8801 30.4802L36.8549 32.455L37.3791 32.1283C38.8958 31.1841 40.547 30.5004 42.2877 30.096L42.8889 29.956V27.1622C42.8889 26.8278 43.1611 26.5556 43.4956 26.5556H48.5037C48.8389 26.5556 49.1111 26.8278 49.1111 27.1622V29.956L49.7123 30.096C51.4522 30.5012 53.1034 31.1841 54.6209 32.1283L55.1451 32.455L57.1199 30.4802C57.3579 30.2422 57.7429 30.2438 57.9786 30.4802L61.5198 34.0214C61.757 34.2587 61.757 34.6437 61.5198 34.8801L59.545 36.8549L59.8717 37.3791C60.8159 38.895 61.4996 40.5462 61.904 42.2877L62.044 42.8889H64.8378C65.1722 42.8889 65.4444 43.1611 65.4444 43.4956V48.5044Z" fill="white"/>
<path d="M45.9999 38.2222C41.7113 38.2222 38.2222 41.7113 38.2222 45.9999C38.2222 50.2886 41.7113 53.7777 45.9999 53.7777C50.2886 53.7777 53.7777 50.2886 53.7777 45.9999C53.7777 41.7113 50.2886 38.2222 45.9999 38.2222ZM45.9999 52.2222C42.5692 52.2222 39.7777 49.4307 39.7777 45.9999C39.7777 42.5692 42.5692 39.7777 45.9999 39.7777C49.4307 39.7777 52.2222 42.5692 52.2222 45.9999C52.2222 49.4307 49.4307 52.2222 45.9999 52.2222Z" fill="white"/>
</g>
</g>
</symbol> 

<symbol id="close" viewBox="0 0 20 20">
<g opacity="0.7" clip-path="url(#clip0_5_981)">
<path d="M13.5556 10L19.3333 4.22222C20.2222 3.33333 20.2222 2 19.3333 1.22222L18.8889 0.777778C18 -0.111111 16.6667 -0.111111 15.8889 0.777778L10 6.44445L4.22222 0.666667C3.33333 -0.222222 2 -0.222222 1.11111 0.666667L0.666667 1.11111C-0.222222 2 -0.222222 3.33333 0.666667 4.11111L6.44445 10L0.666667 15.7778C-0.222222 16.6667 -0.222222 18 0.666667 18.7778L1.11111 19.3333C2 20.2222 3.33333 20.2222 4.11111 19.3333L10 13.5556L15.7778 19.3333C16.6667 20.2222 18 20.2222 18.7778 19.3333L19.2222 18.8889C20.1111 18 20.1111 16.6667 19.2222 15.8889L13.5556 10Z" fill="white"/>
</g>
</symbol> 

<symbol id="vk" viewBox="0 0 24 24">
<g clip-path="url(#clip0_2_1215)">
<g clip-path="url(#clip1_2_1215)">
<path d="M12 0C5.37423 0 0 5.37423 0 12C0 18.6258 5.37423 24 12 24C18.6258 24 24 18.6258 24 12C24 5.37423 18.6258 0 12 0ZM18.0859 13.3006C18.6503 13.8405 19.2393 14.3558 19.7301 14.9693C19.9509 15.2393 20.1718 15.5092 20.319 15.8282C20.5399 16.2699 20.3436 16.7607 19.9509 16.7853H17.4969C16.8589 16.8344 16.3681 16.589 15.9264 16.1472C15.5828 15.8037 15.2638 15.4356 14.9448 15.0675C14.8221 14.9202 14.6748 14.773 14.5031 14.6748C14.1595 14.454 13.865 14.5276 13.6933 14.8712C13.4969 15.2393 13.4479 15.6319 13.4233 16.0245C13.3988 16.6135 13.227 16.7607 12.638 16.7853C11.3865 16.8344 10.2086 16.6626 9.12883 16.0245C8.17178 15.4601 7.41104 14.6994 6.77301 13.816C5.49693 12.0982 4.53988 10.2086 3.65644 8.26994C3.46012 7.82822 3.60736 7.60736 4.09816 7.58282C4.90798 7.55828 5.69325 7.55828 6.50307 7.58282C6.82209 7.58282 7.04294 7.77914 7.16564 8.07362C7.60736 9.12883 8.1227 10.1595 8.78528 11.092C8.95705 11.3374 9.15337 11.5828 9.39877 11.7791C9.69325 11.9755 9.88957 11.9018 10.0368 11.5828C10.1104 11.3865 10.1595 11.1656 10.184 10.9448C10.2577 10.2086 10.2577 9.47239 10.135 8.7362C10.0613 8.2454 9.81595 7.95092 9.34969 7.85276C9.10429 7.80368 9.15337 7.73006 9.25153 7.58282C9.44785 7.36196 9.64417 7.21472 10.0123 7.21472H12.7853C13.227 7.31288 13.3252 7.48466 13.3742 7.92638V11.0184C13.3742 11.1902 13.4479 11.7055 13.7669 11.8037C14.0123 11.8773 14.184 11.681 14.3313 11.5337C14.9939 10.8221 15.4601 9.98773 15.9018 9.12883C16.0982 8.7362 16.2454 8.34356 16.4172 7.95092C16.5399 7.65644 16.7117 7.5092 17.0552 7.5092H19.7301C19.8037 7.5092 19.8773 7.5092 19.9755 7.53374C20.4172 7.60736 20.5399 7.80368 20.4172 8.2454C20.1963 8.93251 19.7791 9.52147 19.362 10.0859C18.9202 10.6994 18.4294 11.2883 17.9877 11.9264C17.546 12.5153 17.5706 12.8098 18.0859 13.3006Z" fill="#000"/>
</g>
</g>
</symbol> 

<symbol id="f" viewBox="0 0 24 24">
<g clip-path="url(#clip0_2_1211)">
<g clip-path="url(#clip1_2_1211)">
<path d="M13.9359 23.8453C13.8375 23.8594 13.7344 23.8781 13.6359 23.8922C13.7344 23.8735 13.8328 23.8594 13.9359 23.8453Z" fill="black"/>
<path d="M14.175 23.8031C14.1281 23.8125 14.0812 23.8219 14.0297 23.8265C14.0812 23.8219 14.1281 23.8125 14.175 23.8031Z" fill="black"/>
<path d="M13.3641 23.9203C13.2469 23.9344 13.1297 23.9437 13.0125 23.9531C13.1297 23.9484 13.2469 23.9344 13.3641 23.9203Z" fill="black"/>
<path d="M13.5984 23.8922C13.5422 23.9016 13.4859 23.9063 13.4297 23.911C13.4813 23.9063 13.5422 23.9016 13.5984 23.8922Z" fill="black"/>
<path d="M14.5031 23.7375C14.4609 23.7469 14.4188 23.7562 14.3766 23.7656C14.4188 23.7562 14.4609 23.7469 14.5031 23.7375Z" fill="black"/>
<path d="M15.3141 23.5359C15.2813 23.5453 15.2437 23.5547 15.2109 23.5641C15.2437 23.5547 15.2766 23.5453 15.3141 23.5359Z" fill="black"/>
<path d="M15.0656 23.6016C15.0281 23.6109 14.9906 23.6203 14.9531 23.6297C14.9953 23.625 15.0281 23.6156 15.0656 23.6016Z" fill="black"/>
<path d="M14.7469 23.6859C14.7094 23.6953 14.6672 23.7047 14.6297 23.714C14.6672 23.7 14.7094 23.6906 14.7469 23.6859Z" fill="black"/>
<path d="M13.0078 23.9578C12.9469 23.9625 12.8812 23.9672 12.8203 23.9719C12.8812 23.9672 12.9469 23.9625 13.0078 23.9578Z" fill="black"/>
<path d="M24 12C24 5.37188 18.6281 0 12 0C5.37188 0 0 5.37188 0 12C0 18.6281 5.37188 24 12 24C12.0703 24 12.1406 24 12.2109 23.9953V14.6578H9.63281V11.6531H12.2109V9.44062C12.2109 6.87656 13.7766 5.47969 16.0641 5.47969C17.1609 5.47969 18.1031 5.55938 18.375 5.59688V8.27813H16.8C15.5578 8.27813 15.3141 8.86875 15.3141 9.73594V11.6484H18.2906L17.9016 14.6531H15.3141V23.5359C20.3297 22.0969 24 17.4797 24 12Z" fill="black"/>
<path d="M12.7922 23.9719C12.6656 23.9812 12.5437 23.9859 12.4172 23.9906C12.5437 23.9859 12.6656 23.9812 12.7922 23.9719Z" fill="black"/>
<path d="M12.4125 23.9906C12.3469 23.9906 12.2813 23.9953 12.2156 23.9953C12.2766 23.9953 12.3422 23.9953 12.4125 23.9906Z" fill="black"/>
</g>
</g>
</symbol> 

<symbol id="in" viewBox="0 0 24 24">
<g clip-path="url(#clip0_2_1212)">
<g clip-path="url(#clip1_2_1212)">
<path d="M14.2969 12C14.2969 13.2703 13.2703 14.2969 12 14.2969C10.7297 14.2969 9.70312 13.2703 9.70312 12C9.70312 10.7297 10.7297 9.70312 12 9.70312C13.2703 9.70312 14.2969 10.7297 14.2969 12Z" fill="#000"/>
<path d="M17.3719 7.93593C17.2594 7.63593 17.0859 7.36405 16.8563 7.14374C16.6359 6.91405 16.3641 6.74061 16.0641 6.62811C15.8203 6.53436 15.4547 6.42186 14.7844 6.38905C14.0578 6.35624 13.8375 6.34686 12 6.34686C10.1578 6.34686 9.94219 6.35155 9.21563 6.38905C8.54531 6.42186 8.17969 6.53436 7.93594 6.62811C7.63594 6.74061 7.36406 6.91405 7.14375 7.14374C6.91406 7.36405 6.74062 7.63593 6.62812 7.93593C6.53437 8.17968 6.42187 8.5453 6.38906 9.21561C6.35625 9.94218 6.34687 10.1578 6.34687 12C6.34687 13.8375 6.35625 14.0578 6.38906 14.7844C6.42187 15.4547 6.52969 15.8203 6.62812 16.0641C6.74062 16.364 6.91406 16.6359 7.14375 16.8562C7.36406 17.0859 7.63594 17.2594 7.93594 17.3719C8.17969 17.4656 8.54531 17.5781 9.21563 17.6109C9.94219 17.6437 10.1578 17.6531 12 17.6531C13.8422 17.6531 14.0578 17.6484 14.7844 17.6109C15.4547 17.5781 15.8203 17.4703 16.0641 17.3719C16.6641 17.1422 17.1422 16.6641 17.3719 16.0641C17.4656 15.8203 17.5781 15.4547 17.6109 14.7844C17.6438 14.0578 17.6531 13.8375 17.6531 12C17.6531 10.1578 17.6484 9.94218 17.6109 9.21561C17.5781 8.5453 17.4656 8.17968 17.3719 7.93593ZM12 15.5391C10.0453 15.5391 8.46094 13.9547 8.46094 12C8.46094 10.0453 10.0453 8.46093 12 8.46093C13.9547 8.46093 15.5391 10.0453 15.5391 12C15.5391 13.9547 13.9547 15.5391 12 15.5391ZM15.6797 9.14999C15.225 9.14999 14.8547 8.77968 14.8547 8.32499C14.8547 7.8703 15.225 7.49999 15.6797 7.49999C16.1344 7.49999 16.5047 7.8703 16.5047 8.32499C16.5047 8.77968 16.1344 9.14999 15.6797 9.14999Z" fill="#000"/>
<path d="M12 0C5.37188 0 0 5.37188 0 12C0 18.6281 5.37188 24 12 24C18.6281 24 24 18.6281 24 12C24 5.37188 18.6281 0 12 0ZM18.8484 14.8406C18.8156 15.5719 18.6984 16.0734 18.5297 16.5141C18.1734 17.4375 17.4422 18.1734 16.5141 18.5297C16.0781 18.6984 15.5766 18.8156 14.8406 18.8484C14.1047 18.8813 13.8703 18.8906 12 18.8906C10.1297 18.8906 9.89531 18.8813 9.15937 18.8484C8.42812 18.8156 7.92656 18.6984 7.48594 18.5297C7.02656 18.3562 6.60938 18.0844 6.26719 17.7328C5.91562 17.3906 5.64375 16.9734 5.47031 16.5141C5.30156 16.0781 5.18438 15.5766 5.15156 14.8406C5.11875 14.1047 5.10938 13.8703 5.10938 12C5.10938 10.1297 5.11875 9.89531 5.15156 9.15937C5.18438 8.42812 5.30156 7.92656 5.47031 7.48594C5.64375 7.02656 5.91562 6.60938 6.26719 6.26719C6.60938 5.91562 7.02656 5.64375 7.48594 5.47031C7.92656 5.30156 8.42344 5.18438 9.15937 5.15156C9.89531 5.11875 10.1297 5.10938 12 5.10938C13.8703 5.10938 14.1047 5.11875 14.8406 5.15156C15.5719 5.18438 16.0734 5.30156 16.5141 5.47031C16.9734 5.64375 17.3906 5.91562 17.7328 6.26719C18.0844 6.60938 18.3562 7.02656 18.5297 7.48594C18.6984 7.92656 18.8156 8.42344 18.8484 9.15937C18.8813 9.89531 18.8906 10.1297 18.8906 12C18.8906 13.8703 18.8813 14.1047 18.8484 14.8406Z" fill="#000"/>
</g>
</g>
</symbol> 

<symbol id="tv" viewBox="0 0 24 24">
<g clip-path="url(#clip0_2_1214)">
<g clip-path="url(#clip1_2_1214)">
<path d="M12 24C18.6281 24 24 18.6281 24 12C24 5.37188 18.6281 0 12 0C5.37188 0 0 5.37188 0 12C0 18.6281 5.37188 24 12 24ZM5.48906 11.7422L17.0625 7.27969C17.6016 7.0875 18.0703 7.41094 17.8922 8.22187L15.9234 17.5031C15.7781 18.1594 15.3844 18.3234 14.8406 18.0094L11.8406 15.7969L10.3922 17.1891C10.2328 17.3484 10.0969 17.4844 9.7875 17.4844L9.99844 14.4328L15.5625 9.4125C15.8062 9.20156 15.5063 9.07969 15.1875 9.29062L8.31562 13.6172L5.35312 12.6937C4.71094 12.4875 4.69688 12.0516 5.48906 11.7422Z" fill="#000"/>
</g>
</g>
</symbol> 


</svg>
